
<svg width="1600px" height="562px" viewBox="0 0 1600 562" version="1.1" xmlns="http://www.w3.org/2000/svg" xmlns:xlink="http://www.w3.org/1999/xlink">
    <!-- Generator: Sketch 43.1 (39012) - http://www.bohemiancoding.com/sketch -->
    <desc>Created with Sketch.</desc>
    <defs>
        <rect id="path-1" x="0" y="0" width="1600" height="562"></rect>
        <polygon id="path-3" points="692.498187 107.897862 692.498187 0.917507898 0.71228805 0.917507898 0.71228805 107.897862"></polygon>
    </defs>
    <g id="Homepage-Final" stroke="none" stroke-width="1" fill="none" fill-rule="evenodd">
        <g id="Homepage-V8a---Final" transform="translate(0.000000, -2358.000000)">
            <g id="Feat-Svc" transform="translate(0.000000, 2358.000000)">
                <g id="bg">
                    <mask id="mask-2" fill="white">
                        <use xlink:href="#path-1"></use>
                    </mask>
                    <use id="Mask" fill="#F5F8FA" xlink:href="#path-1"></use>
                    <g id="Page-1" opacity="0.049999997" mask="url(#mask-2)">
                        <g transform="translate(138.000000, 168.000000) rotate(-90.000000) translate(-138.000000, -168.000000) translate(-240.000000, -5.000000)">
                            <g id="Group-3" stroke-width="1" fill="none" transform="translate(34.653831, 244.804274)">
                                <path d="M22.9003178,76.9297385 C22.9003178,80.5357579 19.9680706,83.4669823 16.3640722,83.4669823 C12.7574081,83.4669823 9.82782649,80.5357579 9.82782649,76.9297385 C9.82782649,73.3210519 12.7574081,70.3898276 16.3640722,70.3898276 C19.9680706,70.3898276 22.9003178,73.3210519 22.9003178,76.9297385 L22.9003178,76.9297385 Z M507.894012,0.749911269 C507.646104,0.499196902 507.307563,0.357836673 506.953027,0.357836673 L14.0689223,0.357836673 C13.7143869,0.357836673 13.3758457,0.499196902 13.1252718,0.749911269 L0.655223975,13.2216175 C0.407315799,13.4723318 0.266034795,13.8110629 0.266034795,14.1657971 L0.266034795,61.3454401 C0.266034795,61.7001743 0.407315799,62.0389054 0.655223975,62.2896198 L9.51594201,71.1526394 C8.19109939,72.7209378 7.36207313,74.7213184 7.36207313,76.9297385 C7.36207313,81.8960167 11.4005773,85.9367855 16.3640722,85.9367855 C21.327567,85.9367855 25.3660712,81.8960167 25.3660712,76.9297385 C25.3660712,71.9634603 21.327567,67.9200244 16.3640722,67.9200244 C14.57007,67.9200244 12.9093518,68.4614607 11.5045388,69.3709671 L2.93171411,60.7933351 L2.93171411,14.7179021 L14.6207179,3.0250108 L506.401232,3.0250108 L603.232033,99.9074436 C603.482606,100.158158 603.821148,100.299518 604.175683,100.299518 L720.207372,100.299518 L720.207372,97.6323441 L604.727479,97.6323441 L507.894012,0.749911269 Z" id="Fill-1" fill="#4B5161"></path>
                            </g>
                            <g id="Group-6" stroke-width="1" fill="none" transform="translate(0.000000, 227.187954)">
                                <path d="M15.5385113,94.5460588 C15.5385113,98.1520782 12.606264,101.083303 9.00226561,101.083303 C5.3956015,101.083303 2.46601993,98.1520782 2.46601993,94.5460588 C2.46601993,90.9373722 5.3956015,88.0061479 9.00226561,88.0061479 C12.606264,88.0061479 15.5385113,90.9373722 15.5385113,94.5460588 L15.5385113,94.5460588 Z M548.290516,0.389477952 C548.042608,0.138763584 547.704067,7.05301368e-05 547.349531,7.05301368e-05 L43.4135199,7.05301368e-05 C43.0589845,7.05301368e-05 42.7204432,0.138763584 42.4725351,0.389477952 L20.8378818,22.0362631 C20.5899736,22.2869775 20.4486926,22.6257086 20.4486926,22.9804428 L20.4486926,82.6077874 L15.1013399,87.9581387 C13.4912696,86.4698556 11.3613918,85.5363446 9.00226561,85.5363446 C4.03877073,85.5363446 0.000266567931,89.5797806 0.000266567931,94.5460588 C0.000266567931,99.512337 4.03877073,103.553106 9.00226561,103.553106 C13.9657605,103.553106 18.0069303,99.512337 18.0069303,94.5460588 C18.0069303,92.9084139 17.5324394,91.3881246 16.7647238,90.0625391 L22.722517,84.1040721 C22.9730909,83.8533577 23.1143719,83.5146266 23.1143719,83.1598925 L23.1143719,23.5325478 L43.9653155,2.66724465 L546.797736,2.66724465 L639.563376,95.4902384 C639.811284,95.7382856 640.149825,95.8796459 640.50436,95.8796459 L754.862003,95.8796459 L754.862003,93.2124717 L641.056156,93.2124717 L548.290516,0.389477952 Z" id="Fill-4" fill="#4B5161"></path>
                            </g>
                            <path d="M56.3671219,86.0590402 C56.3671219,89.6650596 53.4348747,92.596284 49.8335419,92.596284 C46.2268778,92.596284 43.2946306,89.6650596 43.2946306,86.0590402 C43.2946306,82.4530208 46.2268778,79.5217964 49.8335419,79.5217964 C53.4348747,79.5217964 56.3671219,82.4530208 56.3671219,86.0590402 L56.3671219,86.0590402 Z M537.604874,0.386740248 C537.3543,0.138693054 537.02109,2.13162821e-14 536.66922,2.13162821e-14 L114.756162,2.13162821e-14 C114.401626,2.13162821e-14 114.065751,0.141360228 113.815177,0.392074596 L48.8898914,65.3537675 C48.6419833,65.6044819 48.5007023,65.943213 48.5007023,66.2979471 L48.5007023,77.1880191 C44.1689734,77.8388096 40.8288772,81.5488488 40.8288772,86.0590402 C40.8288772,91.0226513 44.8673814,95.0660872 49.8335419,95.0660872 C54.7943711,95.0660872 58.8355409,91.0226513 58.8355409,86.0590402 C58.8355409,81.5488488 55.4927791,77.8388096 51.1663816,77.1880191 L51.1663816,66.8500522 L115.307957,2.66717412 L536.122756,2.66717412 L639.567108,104.993309 C639.817681,105.238689 640.156223,105.377382 640.505427,105.377382 L754.860404,105.377382 L754.860404,102.710208 L641.054557,102.710208 L537.604874,0.386740248 Z" id="Fill-7" fill="#4B5161"></path>
                            <g id="Group-11" stroke-width="1" fill="none" transform="translate(62.363549, 17.040575)">
                                <mask id="mask-4" fill="white">
                                    <use xlink:href="#path-3"></use>
                                </mask>
                                <g id="Clip-10"></g>
                                <path d="M16.2505328,69.0184647 C16.2505328,72.6244842 13.3182855,75.5557085 9.71428709,75.5557085 C6.10762298,75.5557085 3.17804141,72.6244842 3.17804141,69.0184647 C3.17804141,65.4124453 6.10762298,62.481221 9.71428709,62.481221 C13.3182855,62.481221 16.2505328,65.4124453 16.2505328,69.0184647 L16.2505328,69.0184647 Z M474.827345,1.30691532 C474.579437,1.05886813 474.240895,0.917507898 473.88636,0.917507898 L59.5571589,0.917507898 C59.2026235,0.917507898 58.8640823,1.05886813 58.6161741,1.30691532 L7.36848929,52.5806706 C7.11791544,52.831385 6.97663443,53.1701161 6.97663443,53.5221831 L6.97663443,60.4835076 C3.35664193,61.6490626 0.71228805,65.0123692 0.71228805,69.0184647 C0.71228805,73.9820758 4.75079221,78.0255118 9.71428709,78.0255118 C14.677782,78.0255118 18.7162861,73.9820758 18.7162861,69.0184647 C18.7162861,64.0521865 14.677782,60.0114177 9.71428709,60.0114177 C9.69029597,60.0114177 9.66630486,60.0194193 9.64231375,60.0194193 L9.64231375,54.0742881 L60.1089545,3.58468202 L473.334565,3.58468202 L577.200093,107.508454 C577.448001,107.756502 577.786543,107.897862 578.141078,107.897862 L692.498721,107.897862 L692.498721,105.230688 L578.692874,105.230688 L474.827345,1.30691532 Z" id="Fill-9" fill="#4B5161" mask="url(#mask-4)"></path>
                            </g>
                            <path d="M90.5158067,131.510354 C90.5158067,135.119041 87.5835595,138.050265 83.9795611,138.050265 C80.372897,138.050265 77.4433154,135.119041 77.4433154,131.510354 C77.4433154,127.904335 80.372897,124.970443 83.9795611,124.970443 C87.5835595,124.970443 90.5158067,127.904335 90.5158067,131.510354 L90.5158067,131.510354 Z M531.685733,44.8725374 C531.435159,44.6218231 531.096618,44.4804628 530.742083,44.4804628 L150.325653,44.4804628 C149.973784,44.4804628 149.635243,44.6218231 149.384669,44.8725374 L119.041241,75.2356476 C118.790667,75.486362 118.652052,75.8250931 118.652052,76.1798273 L118.652052,94.9327285 L89.308254,124.292981 C87.8128079,123.183437 85.9814862,122.503307 83.9795611,122.503307 C79.0160662,122.503307 74.9748963,126.544076 74.9748963,131.510354 C74.9748963,136.476633 79.0160662,140.517401 83.9795611,140.517401 C88.9430559,140.517401 92.9815601,136.476633 92.9815601,131.510354 C92.9815601,129.507307 92.3018119,127.677625 91.1928893,126.178673 L120.925876,96.4290132 C121.17645,96.1782988 121.317731,95.8395677 121.317731,95.4848336 L121.317731,76.7319323 L150.880115,47.1476369 L530.190287,47.1476369 L638.862035,155.882992 C639.112609,156.131039 639.451151,156.272399 639.805686,156.272399 L754.861736,156.272399 L754.861736,153.605225 L640.357482,153.605225 L531.685733,44.8725374 Z" id="Fill-12" fill="#4B5161"></path>
                            <path d="M118.351896,131.510354 C118.351896,135.119041 115.416983,138.050265 111.815651,138.050265 C108.211652,138.050265 105.282071,135.119041 105.282071,131.510354 C105.282071,127.904335 108.211652,124.970443 111.815651,124.970443 C115.416983,124.970443 118.351896,127.904335 118.351896,131.510354 L118.351896,131.510354 Z M524.110939,60.5848602 C523.860365,60.3341458 523.521824,60.1954528 523.167288,60.1954528 L160.43231,60.1954528 C160.077775,60.1954528 159.739233,60.3341458 159.491325,60.5848602 L135.628164,84.4587357 C135.380256,84.7094501 135.238975,85.0481812 135.238975,85.4029154 L135.238975,103.49169 L115.454303,123.284789 C114.337383,122.788695 113.111171,122.503307 111.815651,122.503307 C106.854822,122.503307 102.813652,126.544076 102.813652,131.510354 C102.813652,136.476633 106.854822,140.517401 111.815651,140.517401 C116.779146,140.517401 120.81765,136.476633 120.81765,131.510354 C120.81765,128.819176 119.610097,126.429388 117.736124,124.778407 L137.512799,104.987975 C137.763373,104.737261 137.904654,104.398529 137.904654,104.043795 L137.904654,85.9550204 L160.984106,62.8626269 L522.615493,62.8626269 L639.56151,179.879557 C639.812084,180.130271 640.150625,180.268965 640.50516,180.268965 L754.860137,180.268965 L754.860137,177.60179 L641.056956,177.60179 L524.110939,60.5848602 Z" id="Fill-14" fill="#4B5161"></path>
                            <path d="M128.01765,167.532675 C128.01765,171.141361 125.085402,174.072586 121.48407,174.072586 C117.877405,174.072586 114.947824,171.141361 114.947824,167.532675 C114.947824,163.926655 117.877405,160.992764 121.48407,160.992764 C125.085402,160.992764 128.01765,163.926655 128.01765,167.532675 L128.01765,167.532675 Z M549.9547,127.357031 C549.704126,127.106317 549.365584,126.964956 549.013715,126.964956 L159.691251,126.964956 C159.336716,126.964956 158.998175,127.106317 158.747601,127.357031 L126.21565,159.907224 C124.837494,159.043059 123.222092,158.525628 121.48407,158.525628 C116.520575,158.525628 112.482071,162.566396 112.482071,167.532675 C112.482071,172.498953 116.520575,176.539722 121.48407,176.539722 C126.444899,176.539722 130.486069,172.498953 130.486069,167.532675 C130.486069,165.273578 129.622389,163.23319 128.241567,161.648889 L160.243047,129.63213 L548.461919,129.63213 L638.625856,219.846628 C638.87643,220.097342 639.214971,220.238702 639.566841,220.238702 L754.860137,220.238702 L754.860137,217.571528 L640.118637,217.571528 L549.9547,127.357031 Z" id="Fill-16" fill="#4B5161"></path>
                            <path d="M172.048274,166.441534 C172.048274,170.05022 169.116027,172.981445 165.512029,172.981445 C161.905364,172.981445 158.975783,170.05022 158.975783,166.441534 C158.975783,162.835514 161.905364,159.901623 165.512029,159.901623 C169.116027,159.901623 172.048274,162.835514 172.048274,166.441534 L172.048274,166.441534 Z M543.611982,142.83971 C543.361408,142.591663 543.022867,142.450303 542.668332,142.450303 L167.34335,142.450303 C166.991481,142.450303 166.652939,142.591663 166.402365,142.83971 L154.164232,155.087374 C153.902995,155.348757 153.775043,155.690155 153.775043,156.031553 C153.775043,156.372951 153.902995,156.71435 154.164232,156.973066 L158.296035,161.107185 C157.187112,162.606137 156.507364,164.438486 156.507364,166.441534 C156.507364,171.407812 160.548534,175.448581 165.512029,175.448581 C170.475523,175.448581 174.514028,171.407812 174.514028,166.441534 C174.514028,161.475256 170.475523,157.434487 165.512029,157.434487 C163.510103,157.434487 161.676116,158.111949 160.18067,159.221493 L156.992517,156.031553 L167.895146,145.117477 L542.116536,145.117477 L639.563109,242.621361 C639.813683,242.869408 640.152224,243.010768 640.504094,243.010768 L754.861736,243.010768 L754.861736,240.343594 L641.05589,240.343594 L543.611982,142.83971 Z" id="Fill-18" fill="#4B5161"></path>
                            <path d="M128.01765,204.625865 C128.01765,208.231885 125.085402,211.163109 121.48407,211.163109 C117.877405,211.163109 114.947824,208.231885 114.947824,204.625865 C114.947824,201.019846 117.877405,198.085954 121.48407,198.085954 C125.085402,198.085954 128.01765,201.019846 128.01765,204.625865 L128.01765,204.625865 Z M530.204682,161.689696 C529.954108,161.441649 529.615566,161.300289 529.261031,161.300289 L203.384401,161.300289 C203.032531,161.300289 202.69399,161.441649 202.443416,161.689696 L179.627867,184.520707 L140.679626,184.520707 C140.325091,184.520707 139.98655,184.662067 139.735976,184.910114 L127.052674,197.605863 C125.514577,196.38163 123.595288,195.618818 121.48407,195.618818 C116.520575,195.618818 112.482071,199.659587 112.482071,204.625865 C112.482071,209.592144 116.520575,213.632912 121.48407,213.632912 C126.444899,213.632912 130.486069,209.592144 130.486069,204.625865 C130.486069,202.734839 129.891622,200.985173 128.894658,199.53423 L141.231422,187.187881 L180.179662,187.187881 C180.534198,187.187881 180.872739,187.046521 181.123313,186.795806 L203.936196,163.967463 L528.709235,163.967463 L640.158622,275.476679 C640.409196,275.727393 640.747737,275.868753 641.102272,275.868753 L754.860137,275.868753 L754.860137,273.201579 L641.654068,273.201579 L530.204682,161.689696 Z" id="Fill-20" fill="#4B5161"></path>
                            <g id="Group-24" stroke-width="1" fill="none" transform="translate(151.943721, 173.844472)">
                                <path d="M16.314224,36.0218573 C16.314224,39.6305439 13.3819767,42.5617683 9.77797829,42.5617683 C6.17131418,42.5617683 3.24173261,39.6305439 3.24173261,36.0218573 C3.24173261,32.4158379 6.17131418,29.4846136 9.77797829,29.4846136 C13.3819767,29.4846136 16.314224,32.4158379 16.314224,36.0218573 L16.314224,36.0218573 Z M369.647351,0.417749998 C369.396777,0.169702804 369.058236,0.0283425758 368.703701,0.0283425758 L59.8394358,0.0283425758 C59.4849004,0.0283425758 59.1463592,0.169702804 58.898451,0.417749998 L32.7348085,26.596064 L17.8709807,26.596064 C17.5164453,26.596064 17.1779041,26.7374242 16.9273302,26.9854714 L15.1093369,28.8044842 C13.6112251,27.6949397 11.7799035,27.0174775 9.77797829,27.0174775 C4.81448341,27.0174775 0.775979248,31.0582463 0.775979248,36.0218573 C0.775979248,40.9881356 4.81448341,45.0289044 9.77797829,45.0289044 C14.7414732,45.0289044 18.782643,40.9881356 18.782643,36.0218573 C18.782643,34.0214768 18.1028948,32.1891281 16.9939722,30.6901763 L18.4227763,29.2632381 L33.2866041,29.2632381 C33.6411395,29.2632381 33.9796808,29.1218779 34.2302546,28.8711635 L60.3912314,2.6955167 L368.151905,2.6955167 L487.619655,122.230259 C487.867563,122.480974 488.206104,122.622334 488.56064,122.622334 L602.918282,122.622334 L602.918282,119.95516 L489.112435,119.95516 L369.647351,0.417749998 Z" id="Fill-22" fill="#4B5161"></path>
                            </g>
                            <path d="M226.042974,204.240313 C226.042974,200.634293 228.975222,197.703069 232.57922,197.703069 C236.183219,197.703069 239.1128,200.634293 239.1128,204.240313 C239.1128,207.848999 236.183219,210.780224 232.57922,210.780224 C228.975222,210.780224 226.042974,207.848999 226.042974,204.240313 M241.581219,204.240313 C241.581219,199.276702 237.540049,195.235933 232.57922,195.235933 C227.615725,195.235933 223.577221,199.276702 223.577221,204.240313 C223.577221,209.206591 227.615725,213.24736 232.57922,213.24736 C237.540049,213.24736 241.581219,209.206591 241.581219,204.240313" id="Fill-25" fill="#4B5161"></path>
                            <path d="M158.818774,93.7322334 C158.818774,90.1235469 161.751022,87.1923225 165.352354,87.1923225 C168.959018,87.1923225 171.891266,90.1235469 171.891266,93.7322334 C171.891266,97.3382529 168.959018,100.272144 165.352354,100.272144 C161.751022,100.272144 158.818774,97.3382529 158.818774,93.7322334 M174.357019,93.7322334 C174.357019,88.7659552 170.318515,84.7251864 165.352354,84.7251864 C160.391525,84.7251864 156.350355,88.7659552 156.350355,93.7322334 C156.350355,98.6985117 160.391525,102.73928 165.352354,102.73928 C170.318515,102.73928 174.357019,98.6985117 174.357019,93.7322334" id="Fill-27" fill="#4B5161"></path>
                            <path d="M220.730776,93.7322334 C220.730776,90.1235469 223.663023,87.1923225 227.264356,87.1923225 C230.87102,87.1923225 233.800601,90.1235469 233.800601,93.7322334 C233.800601,97.3382529 230.87102,100.272144 227.264356,100.272144 C223.663023,100.272144 220.730776,97.3382529 220.730776,93.7322334 M236.266355,93.7322334 C236.266355,88.7659552 232.227851,84.7251864 227.264356,84.7251864 C222.300861,84.7251864 218.265022,88.7659552 218.265022,93.7322334 C218.265022,98.6985117 222.300861,102.73928 227.264356,102.73928 C232.227851,102.73928 236.266355,98.6985117 236.266355,93.7322334" id="Fill-29" fill="#4B5161"></path>
                            <path d="M345.416326,93.7322334 C345.416326,90.1235469 348.348573,87.1923225 351.949906,87.1923225 C355.553905,87.1923225 358.486152,90.1235469 358.486152,93.7322334 C358.486152,97.3382529 355.553905,100.272144 351.949906,100.272144 C348.348573,100.272144 345.416326,97.3382529 345.416326,93.7322334 M360.951905,93.7322334 C360.951905,88.7659552 356.913401,84.7251864 351.949906,84.7251864 C346.989077,84.7251864 342.947907,88.7659552 342.947907,93.7322334 C342.947907,98.6985117 346.989077,102.73928 351.949906,102.73928 C356.913401,102.73928 360.951905,98.6985117 360.951905,93.7322334" id="Fill-31" fill="#4B5161"></path>
                        </g>
                    </g>
                </g>
            </g>
        </g>
    </g>
</svg>
