
<svg width="971px" height="879px" viewBox="0 0 971 879" version="1.1" xmlns="http://www.w3.org/2000/svg" xmlns:xlink="http://www.w3.org/1999/xlink">
    <!-- Generator: Sketch 43.1 (39012) - http://www.bohemiancoding.com/sketch -->
    <desc>Created with Sketch.</desc>
    <defs>
        <linearGradient x1="100%" y1="50%" x2="0%" y2="50%" id="linearGradient-1">
            <stop stop-color="#000000" stop-opacity="0" offset="0%"></stop>
            <stop stop-color="#000000" offset="100%"></stop>
        </linearGradient>
        <polygon id="path-2" points="286.606087 0.0112363495 0.571474005 0.0112363495 0.571474005 851.649694 286.606087 851.649694 286.606087 0.0112363495"></polygon>
        <polygon id="path-4" points="0.528369778 668.87486 241.814965 668.87486 241.814965 0.38445728 0.528369778 0.38445728 0.528369778 668.87486"></polygon>
        <polygon id="path-6" points="477.476397 616.766882 0 616.766882 0 0 477.476397 0 477.476397 616.766882"></polygon>
        <polygon id="path-8" points="0 0.0807180412 0 86.4011398 270.410256 86.4011398 270.410256 0.0807180412"></polygon>
        <polygon id="path-10" points="0 0.0749695372 0 255.868419 109.67622 255.868419 109.67622 0.0749695372 2.76832955e-19 0.0749695372"></polygon>
        <polygon id="path-12" points="2.76832955e-19 0.410281092 2.76832955e-19 38.5057299 88.4253378 38.5057299 88.4253378 0.410281092 0 0.410281092"></polygon>
        <polygon id="path-14" points="3.69110606e-19 0.241924474 3.69110606e-19 118.328969 331.853669 118.328969 331.853669 0.241924474 0 0.241924474"></polygon>
        <polygon id="path-16" points="9.22776516e-20 0.136748395 9.22776516e-20 41.7606878 173.577302 41.7606878 173.577302 0.136748395 0 0.136748395"></polygon>
    </defs>
    <g id="Homepage-Final" stroke="none" stroke-width="1" fill="none" fill-rule="evenodd">
        <g id="Homepage-V8a---Final">
            <g id="Hero">
                <g id="bg">
                    <rect id="Rectangle-9" fill="url(#linearGradient-1)" x="0" y="0" width="971" height="989"></rect>
                    <g id="Tech-Grapghic" opacity="0.349999994" transform="translate(0.000000, 103.000000)">
                        <path d="M754.420123,199.270961 C759.026336,199.270961 762.771225,203.017218 762.771225,207.614123 C762.771225,212.217833 759.026336,215.960687 754.420123,215.960687 C749.817314,215.960687 746.072425,212.217833 746.072425,207.614123 C746.072425,203.017218 749.817314,199.270961 754.420123,199.270961 L754.420123,199.270961 Z M580.565358,730.514649 C580.881972,730.194805 581.062407,729.762676 581.062407,729.310131 L581.062407,544.954154 L642.441136,483.612179 C642.761154,483.295738 642.941589,482.863608 642.941589,482.411063 L642.941589,321.829015 L682.957429,281.824711 C683.277447,281.504867 683.454478,281.072737 683.454478,280.620192 L683.454478,239.115344 L713.274007,209.31542 L743.09694,209.31542 C743.927625,214.841234 748.663207,219.108087 754.420123,219.108087 C760.759198,219.108087 765.920336,213.949754 765.920336,207.614123 C765.920336,201.278492 760.759198,196.123561 754.420123,196.123561 C748.663207,196.123561 743.927625,200.387012 743.09694,205.912826 L712.569287,205.912826 C712.116496,205.912826 711.684132,206.093163 711.367518,206.413007 L680.550487,237.206488 C680.230469,237.526332 680.050034,237.958461 680.050034,238.411006 L680.050034,279.915855 L640.034194,319.920159 C639.71758,320.240003 639.537145,320.672133 639.537145,321.124678 L639.537145,481.706726 L578.158416,543.045299 C577.838398,543.365142 577.657963,543.797272 577.657963,544.249817 L577.657963,728.605794 L547.749918,758.504392 C547.4299,758.824236 547.249465,759.256366 547.249465,759.708911 L547.249465,851.674237 L550.653909,851.674237 L550.653909,760.413248 L580.565358,730.514649 Z" id="Fill-1" fill="#4B5161"></path>
                        <g id="Group-5" transform="translate(369.117148, 0.025223)">
                            <mask id="mask-3" fill="white">
                                <use xlink:href="#path-2"></use>
                            </mask>
                            <g id="Clip-4"></g>
                            <path d="M171.484798,11.501458 C171.484798,6.9011501 175.233092,3.15829607 179.835901,3.15829607 C184.43871,3.15829607 188.180194,6.9011501 188.180194,11.501458 C188.180194,16.1051684 184.43871,19.8480224 179.835901,19.8480224 C175.233092,19.8480224 171.484798,16.1051684 171.484798,11.501458 M165.751714,690.66614 L165.751714,352.019512 L269.410238,248.417313 C269.726852,248.097469 269.907287,247.665339 269.907287,247.212794 L269.907287,166.459017 L286.109038,150.272875 C286.429056,149.953031 286.606087,149.520902 286.606087,149.071759 L286.606087,107.19943 C286.606087,106.746885 286.429056,106.314756 286.109038,105.994912 L266.135163,86.0318895 C265.815145,85.7154482 265.382781,85.5351107 264.92999,85.5351107 L211.759376,85.5351107 L181.653874,55.4459669 L181.653874,22.8116823 C187.124816,21.9304103 191.329305,17.2178168 191.329305,11.501458 C191.329305,5.16582687 186.171572,0.01089609 179.835901,0.01089609 C173.496825,0.01089609 168.335687,5.16582687 168.335687,11.501458 C168.335687,17.2960765 172.666141,22.0563063 178.24943,22.8355005 L178.24943,56.1503039 C178.24943,56.602849 178.429865,57.0349785 178.749883,57.3548224 L209.852887,88.4375238 C210.169501,88.7573677 210.601865,88.9377053 211.054656,88.9377053 L264.22527,88.9377053 L283.201643,107.903767 L283.201643,148.367422 L267.003296,164.550162 C266.683278,164.870006 266.502843,165.302135 266.502843,165.75468 L266.502843,246.508457 L162.847723,350.114059 C162.527705,350.430501 162.34727,350.86263 162.34727,351.315175 L162.34727,689.961803 L0.571474005,851.649694 L5.38535845,851.649694 L165.254665,691.867256 C165.574683,691.547412 165.751714,691.115282 165.751714,690.66614" id="Fill-3" fill="#4B5161" mask="url(#mask-3)"></path>
                        </g>
                        <g id="Group-8" transform="translate(315.734105, 239.208234)" fill="#4B5161">
                            <path d="M273.633784,11.7494993 C273.633784,7.14919146 277.382078,3.40633743 281.981482,3.40633743 C286.584291,3.40633743 290.32918,7.14919146 290.32918,11.7494993 C290.32918,16.3498072 286.584291,20.0926612 281.981482,20.0926612 C277.382078,20.0926612 273.633784,16.3498072 273.633784,11.7494993 M186.292762,428.49588 L186.292762,109.795262 L275.175998,20.9603228 C277.085891,22.3723996 279.424744,23.2400612 281.981482,23.2400612 C288.320558,23.2400612 293.478291,18.0851304 293.478291,11.7494993 C293.478291,5.41386822 288.320558,0.258937447 281.981482,0.258937447 C275.642407,0.258937447 270.484673,5.41386822 270.484673,11.7494993 C270.484673,14.3048478 271.352807,16.6424303 272.769056,18.5546885 L183.385367,107.889809 C183.065349,108.209653 182.888318,108.641782 182.888318,109.090925 L182.888318,427.791543 L0.00156226721,612.467363 L4.7916156,612.467363 L185.799118,429.690191 C186.115731,429.370347 186.292762,428.94162 186.292762,428.49588" id="Fill-6"></path>
                        </g>
                        <path d="M613.671197,130.03939 C613.671197,125.439082 617.419491,121.696228 622.018895,121.696228 C626.625108,121.696228 630.369997,125.439082 630.369997,130.03939 C630.369997,134.639698 626.625108,138.382552 622.018895,138.382552 C617.419491,138.382552 613.671197,134.639698 613.671197,130.03939 L613.671197,130.03939 Z M255.040211,728.875619 C255.360228,728.555775 255.540664,728.123646 255.540664,727.674503 L255.540664,585.803323 L448.5999,392.84899 C448.916513,392.532548 449.096948,392.100419 449.096948,391.647874 L449.096948,305.273011 L615.210006,139.250214 C617.123304,140.66229 619.462157,141.529952 622.018895,141.529952 C628.357971,141.529952 633.519108,136.375021 633.519108,130.03939 C633.519108,123.703759 628.357971,118.548828 622.018895,118.548828 C615.67982,118.548828 610.522086,123.703759 610.522086,130.03939 C610.522086,132.594739 611.39022,134.932321 612.803064,136.844579 L446.192957,303.364155 C445.87294,303.683999 445.692504,304.116128 445.692504,304.568674 L445.692504,390.943537 L252.633268,583.89787 C252.313251,584.214311 252.13622,584.646441 252.13622,585.098986 L252.13622,726.970166 L127.359926,851.675257 L132.173811,851.675257 L255.040211,728.875619 Z" id="Fill-9" fill="#4B5161"></path>
                        <path d="M474.328308,593.184231 C474.328308,597.784539 470.580014,601.527393 465.98061,601.527393 C461.377801,601.527393 457.632912,597.784539 457.632912,593.184231 C457.632912,588.583923 461.377801,584.841069 465.98061,584.841069 C470.580014,584.841069 474.328308,588.583923 474.328308,593.184231 M454.483801,593.184231 C454.483801,599.519862 459.641534,604.674793 465.98061,604.674793 C472.319685,604.674793 477.477419,599.519862 477.477419,593.184231 C477.477419,586.8486 472.319685,581.693669 465.98061,581.693669 C459.641534,581.693669 454.483801,586.8486 454.483801,593.184231" id="Fill-11" fill="#4B5161"></path>
                        <path d="M540.601947,104.623029 C540.601947,100.022722 544.35024,96.2798675 548.953049,96.2798675 C553.555858,96.2798675 557.297342,100.022722 557.297342,104.623029 C557.297342,109.223337 553.555858,112.966191 548.953049,112.966191 C544.35024,112.966191 540.601947,109.223337 540.601947,104.623029 M560.446453,104.623029 C560.446453,98.2873983 555.28872,93.1324675 548.953049,93.1324675 C542.613973,93.1324675 537.452836,98.2873983 537.452836,104.623029 C537.452836,110.958661 542.613973,116.113591 548.953049,116.113591 C555.28872,116.113591 560.446453,110.958661 560.446453,104.623029" id="Fill-13" fill="#4B5161"></path>
                        <g id="Group-17" transform="translate(188.681593, 239.208234)" fill="#4B5161">
                            <path d="M351.920354,11.7494993 C351.920354,7.14919146 355.668647,3.40633743 360.271456,3.40633743 C364.874265,3.40633743 368.61575,7.14919146 368.61575,11.7494993 C368.61575,16.3498072 364.874265,20.0926612 360.271456,20.0926612 C355.668647,20.0926612 351.920354,16.3498072 351.920354,11.7494993 M174.998185,439.823117 L174.998185,277.28798 L284.253616,168.088512 C284.573634,167.772071 284.75407,167.339941 284.75407,166.887396 L284.75407,89.6314865 L353.462567,20.9603228 C355.375865,22.3723996 357.714718,23.2400612 360.271456,23.2400612 C366.607127,23.2400612 371.764861,18.0851304 371.764861,11.7494993 C371.764861,5.41386822 366.607127,0.258937447 360.271456,0.258937447 C353.932381,0.258937447 348.771243,5.41386822 348.771243,11.7494993 C348.771243,14.3048478 349.639376,16.6424303 351.055625,18.5546885 L281.846674,87.7226309 C281.526656,88.0424748 281.349625,88.4746043 281.349625,88.9271494 L281.349625,166.183059 L172.094194,275.379124 C171.774176,275.698968 171.593741,276.131098 171.593741,276.583643 L171.593741,439.125585 L0.850638449,612.467363 L5.627074,612.467363 L174.51135,441.014025 C174.821154,440.694182 174.998185,440.265455 174.998185,439.823117" id="Fill-15"></path>
                        </g>
                        <path d="M606.064307,201.204656 C606.064307,205.804963 602.316013,209.547817 597.716609,209.547817 C593.1138,209.547817 589.368911,205.804963 589.368911,201.204656 C589.368911,196.600945 593.1138,192.858091 597.716609,192.858091 C602.316013,192.858091 606.064307,196.600945 606.064307,201.204656 M586.2198,201.204656 C586.2198,207.540287 591.377533,212.695217 597.716609,212.695217 C604.055684,212.695217 609.213418,207.540287 609.213418,201.204656 C609.213418,194.869024 604.055684,189.710691 597.716609,189.710691 C591.377533,189.710691 586.2198,194.869024 586.2198,201.204656" id="Fill-18" fill="#4B5161"></path>
                        <g id="Group-22" transform="translate(439.173333, 182.800398)">
                            <mask id="mask-5" fill="white">
                                <use xlink:href="#path-4"></use>
                            </mask>
                            <g id="Clip-21"></g>
                            <path d="M221.967054,11.8784217 C221.967054,7.27471129 225.715348,3.53185726 230.314752,3.53185726 C234.920965,3.53185726 238.665854,7.27471129 238.665854,11.8784217 C238.665854,16.4787296 234.920965,20.2215836 230.314752,20.2215836 C225.715348,20.2215836 221.967054,16.4787296 221.967054,11.8784217 L221.967054,11.8784217 Z M118.802174,519.56935 C119.122192,519.249506 119.302628,518.817377 119.302628,518.368234 L119.302628,177.802543 L217.142956,80.0051703 C217.462974,79.688729 217.640005,79.2565995 217.640005,78.8040544 L217.640005,25.1349302 L222.511765,20.2658174 C224.56805,22.1746729 227.29501,23.3689836 230.314752,23.3689836 C236.653828,23.3689836 241.814965,18.2140528 241.814965,11.8784217 C241.814965,5.54279065 236.653828,0.38445728 230.314752,0.38445728 C223.975676,0.38445728 218.817943,5.54279065 218.817943,11.8784217 C218.817943,13.9608096 219.417125,15.8900807 220.390796,17.5743651 L214.736014,23.2260746 C214.415996,23.5459185 214.235561,23.978048 214.235561,24.4271905 L214.235561,78.0997173 L116.395232,175.893688 C116.075214,176.213532 115.898183,176.645661 115.898183,177.098206 L115.898183,517.660495 L1.02882311,632.470841 C0.708805333,632.787282 0.528369778,633.219412 0.528369778,633.671957 L0.528369778,668.8752 L3.93281422,668.8752 L3.93281422,634.376294 L118.802174,519.56935 Z" id="Fill-20" fill="#4B5161" mask="url(#mask-5)"></path>
                        </g>
                        <path d="M433.055887,97.9607492 C433.055887,93.3604414 436.80418,89.6175873 441.406989,89.6175873 C446.009798,89.6175873 449.751283,93.3604414 449.751283,97.9607492 C449.751283,102.561057 446.009798,106.303911 441.406989,106.303911 C436.80418,106.303911 433.055887,102.561057 433.055887,97.9607492 L433.055887,97.9607492 Z M125.151123,204.250999 C125.467736,204.570842 125.9001,204.75118 126.352892,204.75118 L334.582332,204.75118 C335.035123,204.75118 335.467487,204.570842 335.787505,204.250999 L433.682305,106.409392 C435.724972,108.280819 438.424696,109.451311 441.406989,109.451311 C447.74266,109.451311 452.900394,104.29638 452.900394,97.9607492 C452.900394,91.6251181 447.74266,86.4701874 441.406989,86.4701874 C435.067914,86.4701874 429.906776,91.6251181 429.906776,97.9607492 C429.906776,100.080566 430.526385,102.04046 431.530696,103.748563 L333.877612,201.348585 L127.057612,201.348585 L84.5565271,158.867192 C84.2365093,158.550751 83.8041449,158.370413 83.3513538,158.370413 L0.000340444446,158.370413 L0.000340444446,161.773008 L82.6466338,161.773008 L125.151123,204.250999 Z" id="Fill-23" fill="#4B5161"></path>
                        <g id="Group-27" transform="translate(0.000000, 138.965332)" fill="#4B5161">
                            <path d="M546.991748,11.5393035 C546.991748,6.93899565 550.740042,3.19614162 555.342851,3.19614162 C559.94566,3.19614162 563.687144,6.93899565 563.687144,11.5393035 C563.687144,16.1396114 559.94566,19.8824654 555.342851,19.8824654 C550.740042,19.8824654 546.991748,16.1396114 546.991748,11.5393035 L546.991748,11.5393035 Z M102.977295,101.09219 C103.297313,101.412034 103.729677,101.592371 104.182468,101.592371 L224.781508,101.592371 L252.834131,129.629751 C253.150744,129.949595 253.583108,130.129932 254.0359,130.129932 L379.578193,130.129932 C380.030984,130.129932 380.463348,129.949595 380.783366,129.629751 L440.432637,70.0094887 L497.739651,70.0094887 C498.192442,70.0094887 498.624806,69.8291511 498.944824,69.5093072 L548.094788,20.3860494 C550.07958,22.0124896 552.585251,23.0298654 555.342851,23.0298654 C561.678522,23.0298654 566.836255,17.8749346 566.836255,11.5393035 C566.836255,5.20367242 561.678522,0.0487416391 555.342851,0.0487416391 C549.003775,0.0487416391 543.842637,5.20367242 543.842637,11.5393035 C543.842637,13.8870938 544.557571,16.0715595 545.776362,17.8919476 L497.034931,66.6068941 L439.727917,66.6068941 C439.275126,66.6068941 438.842762,66.783829 438.526148,67.1036729 L378.873473,126.727338 L254.74062,126.727338 L226.691402,98.6865557 C226.371384,98.3701144 225.93902,98.1897769 225.486228,98.1897769 L104.887188,98.1897769 L62.6346284,55.9635783 C62.3146107,55.6437344 61.8822462,55.4633969 61.4294551,55.4633969 L-0.000340444446,55.4633969 L-0.000340444446,58.8659914 L60.7247351,58.8659914 L102.977295,101.09219 Z" id="Fill-25"></path>
                        </g>
                        <g id="Group-30" transform="translate(0.000000, 220.331923)">
                            <mask id="mask-7" fill="white">
                                <use xlink:href="#path-6"></use>
                            </mask>
                            <g id="Clip-29"></g>
                            <path d="M457.631891,26.0670146 C457.631891,21.4667067 461.380184,17.7238527 465.982993,17.7238527 C470.585802,17.7238527 474.327286,21.4667067 474.327286,26.0670146 C474.327286,30.6673224 470.585802,34.4101765 465.982993,34.4101765 C461.380184,34.4101765 457.631891,30.6673224 457.631891,26.0670146 M146.853775,487.22406 L146.853775,353.335366 L215.586104,284.633579 L297.320006,284.633579 C297.772797,284.633579 298.205162,284.453241 298.52518,284.1368 L422.259713,160.466098 C422.579731,160.146254 422.760166,159.714124 422.760166,159.264982 L422.760166,71.668587 L459.174104,35.2744355 C461.087402,36.6899148 463.426255,37.5575765 465.982993,37.5575765 C472.318664,37.5575765 477.476397,32.4026457 477.476397,26.0670146 C477.476397,19.7313835 472.318664,14.5764527 465.982993,14.5764527 C459.643917,14.5764527 454.48278,19.7313835 454.48278,26.0670146 C454.48278,28.6223631 455.350913,30.9599456 456.767162,32.8688011 L419.852771,69.7631341 C419.536157,70.082978 419.355722,70.5151075 419.355722,70.96425 L419.355722,158.557242 L296.615286,281.230984 L214.881384,281.230984 C214.428593,281.230984 213.999633,281.411322 213.679615,281.731166 L143.94638,351.42651 C143.629766,351.746354 143.449331,352.178484 143.449331,352.631029 L143.449331,486.519723 L-0.000340444444,629.891447 L-0.000340444444,631.344355 L3.35984622,631.344355 L146.353322,488.428578 C146.67334,488.108734 146.853775,487.676605 146.853775,487.22406" id="Fill-28" fill="#4B5161" mask="url(#mask-7)"></path>
                        </g>
                        <g id="Group-33" transform="translate(0.000000, 367.628202)">
                            <mask id="mask-9" fill="white">
                                <use xlink:href="#path-8"></use>
                            </mask>
                            <g id="Clip-32"></g>
                            <path d="M250.565749,11.5712799 C250.565749,6.97097205 254.314043,3.22811802 258.916852,3.22811802 C263.51966,3.22811802 267.261145,6.97097205 267.261145,11.5712799 C267.261145,16.1715878 263.51966,19.9144418 258.916852,19.9144418 C254.314043,19.9144418 250.565749,16.1715878 250.565749,11.5712799 M185.605545,85.904361 L251.369198,20.173039 C253.398247,21.9491934 256.019669,23.0618418 258.916852,23.0618418 C265.252523,23.0618418 270.410256,17.906911 270.410256,11.5712799 C270.410256,5.23564882 265.252523,0.0807180412 258.916852,0.0807180412 C252.577776,0.0807180412 247.416638,5.23564882 247.416638,11.5712799 C247.416638,13.7761612 248.073696,15.8211205 249.156309,17.5768593 L183.695652,82.9985452 L-0.00136177778,82.9985452 L-0.00136177778,86.4011398 L184.400372,86.4011398 C184.853163,86.4011398 185.285527,86.2208022 185.605545,85.904361" id="Fill-31" fill="#4B5161" mask="url(#mask-9)"></path>
                        </g>
                        <path d="M376.154684,308.020946 C376.154684,303.420638 379.902977,299.677784 384.505786,299.677784 C389.108595,299.677784 392.850079,303.420638 392.850079,308.020946 C392.850079,312.621254 389.108595,316.364108 384.505786,316.364108 C379.902977,316.364108 376.154684,312.621254 376.154684,308.020946 M176.70871,421.793501 L254.96327,343.578059 L350.628159,343.578059 C351.08095,343.578059 351.513315,343.397722 351.829928,343.08128 L377.696897,317.228367 C379.610195,318.643846 381.949048,319.511508 384.505786,319.511508 C390.841457,319.511508 395.99919,314.356577 395.99919,308.020946 C395.99919,301.685315 390.841457,296.530384 384.505786,296.530384 C378.16671,296.530384 373.005572,301.685315 373.005572,308.020946 C373.005572,310.576294 373.873706,312.913877 375.289955,314.822733 L349.923439,340.175465 L254.25855,340.175465 C253.805759,340.175465 253.376799,340.355802 253.056781,340.675646 L174.798817,418.887685 L0.00102133333,418.887685 L0.00102133333,422.29028 L175.503537,422.29028 C175.956328,422.29028 176.388692,422.109942 176.70871,421.793501" id="Fill-34" fill="#4B5161"></path>
                        <g id="Group-38" transform="translate(0.000000, 549.932038)">
                            <mask id="mask-11" fill="white">
                                <use xlink:href="#path-10"></use>
                            </mask>
                            <g id="Clip-37"></g>
                            <path d="M46.7212338,11.5655314 C46.7212338,6.96522355 50.4695271,3.22236952 55.072336,3.22236952 C59.6751449,3.22236952 63.4166293,6.96522355 63.4166293,11.5655314 C63.4166293,16.1658393 59.6751449,19.9086933 55.072336,19.9086933 C50.4695271,19.9086933 46.7212338,16.1658393 46.7212338,11.5655314 M109.67622,145.546095 L109.67622,65.0543181 C109.67622,64.601773 109.495785,64.1696435 109.179172,63.8497996 L64.0055982,18.7075774 C65.581856,16.7408778 66.5657404,14.2773993 66.5657404,11.5655314 C66.5657404,5.22990032 61.4080071,0.0749695372 55.072336,0.0749695372 C48.7332604,0.0749695372 43.5721227,5.22990032 43.5721227,11.5655314 C43.5721227,17.9011625 48.7332604,23.0560933 55.072336,23.0560933 C57.4690649,23.0560933 59.698976,22.3143277 61.5407804,21.0519651 L106.271776,65.7586552 L106.271776,144.841758 L-0.00136177778,251.05715 L-0.00136177778,255.868419 L109.179172,146.747211 C109.495785,146.43077 109.67622,145.99864 109.67622,145.546095" id="Fill-36" fill="#4B5161" mask="url(#mask-11)"></path>
                        </g>
                        <g id="Group-41" transform="translate(0.000000, 660.599909)">
                            <mask id="mask-13" fill="white">
                                <use xlink:href="#path-12"></use>
                            </mask>
                            <g id="Clip-40"></g>
                            <path d="M68.5808311,11.900843 C68.5808311,7.3005351 72.3291244,3.55768107 76.9319333,3.55768107 C81.5347422,3.55768107 85.2762267,7.3005351 85.2762267,11.900843 C85.2762267,16.5011508 81.5347422,20.2440049 76.9319333,20.2440049 C72.3291244,20.2440049 68.5808311,16.5011508 68.5808311,11.900843 M56.27036,38.0089511 L72.0329378,22.2549382 C73.5240844,22.9626779 75.17524,23.3914048 76.9319333,23.3914048 C83.2676044,23.3914048 88.4253378,18.2364741 88.4253378,11.900843 C88.4253378,5.56521187 83.2676044,0.410281092 76.9319333,0.410281092 C70.5928578,0.410281092 65.43172,5.56521187 65.43172,11.900843 C65.43172,15.2319831 66.8820133,18.2126559 69.1595867,20.3154593 L54.3604667,35.1031354 L-0.00170222222,35.1031354 L-0.00170222222,38.5057299 L55.0651867,38.5057299 C55.5179778,38.5057299 55.9503422,38.328795 56.27036,38.0089511" id="Fill-39" fill="#4B5161" mask="url(#mask-13)"></path>
                        </g>
                        <g id="Group-44" transform="translate(0.000000, 276.636775)">
                            <mask id="mask-15" fill="white">
                                <use xlink:href="#path-14"></use>
                            </mask>
                            <g id="Clip-43"></g>
                            <path d="M320.360265,3.38932445 C324.963074,3.38932445 328.704558,7.13558108 328.704558,11.7324863 C328.704558,16.3327942 324.963074,20.0756482 320.360265,20.0756482 C315.754052,20.0756482 312.009163,16.3327942 312.009163,11.7324863 C312.009163,7.13558108 315.754052,3.38932445 320.360265,3.38932445 M36.2151182,117.83219 L109.785163,44.298719 L200.118692,44.298719 C200.568078,44.298719 201.000443,44.1217841 201.32046,43.8019402 L231.705127,13.4337836 L309.033678,13.4337836 C309.864363,18.9595972 314.603349,23.2230482 320.360265,23.2230482 C326.695936,23.2230482 331.853669,18.0681174 331.853669,11.7324863 C331.853669,5.39685525 326.695936,0.241924474 320.360265,0.241924474 C314.603349,0.241924474 309.864363,4.50537547 309.033678,10.0311891 L231.000407,10.0311891 C230.547616,10.0311891 230.115252,10.2115266 229.795234,10.5313705 L199.413972,40.8961244 L109.080443,40.8961244 C108.631056,40.8961244 108.198692,41.0764619 107.878674,41.3963058 L34.3086293,114.926375 L-0.00136177778,114.926375 L-0.00136177778,118.328969 L35.0133493,118.328969 C35.462736,118.328969 35.8951004,118.152034 36.2151182,117.83219" id="Fill-42" fill="#4B5161" mask="url(#mask-15)"></path>
                        </g>
                        <g id="Group-47" transform="translate(0.000000, 211.457425)" fill="#4B5161">
                            <path d="M183.853277,82.4148519 C183.853277,87.0151597 180.108388,90.7580137 175.508984,90.7580137 C170.902771,90.7580137 167.157882,87.0151597 167.157882,82.4148519 C167.157882,77.814544 170.902771,74.07169 175.508984,74.07169 C180.108388,74.07169 183.853277,77.814544 183.853277,82.4148519 L183.853277,82.4148519 Z M90.5170284,59.6412864 C90.8370462,59.9577277 91.2694107,60.1380652 91.7222018,60.1380652 L150.80974,60.1380652 L166.293153,75.6130653 C164.876904,77.5219209 164.008771,79.8595033 164.008771,82.4148519 C164.008771,88.7504829 169.169908,93.9054137 175.508984,93.9054137 C181.844655,93.9054137 187.002388,88.7504829 187.002388,82.4148519 C187.002388,76.0792208 181.844655,70.92429 175.508984,70.92429 C172.952246,70.92429 170.609988,71.7919516 168.700095,73.2074309 L152.716228,57.235652 C152.399615,56.9158081 151.967251,56.7354706 151.51446,56.7354706 L92.4269218,56.7354706 L36.3012507,0.64369908 C35.9812329,0.32385519 35.5488684,0.143517677 35.0994818,0.143517677 L-0.000340444446,0.143517677 L-0.000340444446,3.54611225 L34.3947618,3.54611225 L90.5170284,59.6412864 Z" id="Fill-45"></path>
                        </g>
                        <path d="M25.8193067,281.820287 C25.8193067,277.219979 29.5676,273.477125 34.1704089,273.477125 C38.7732178,273.477125 42.5147022,277.219979 42.5147022,281.820287 C42.5147022,286.420595 38.7732178,290.163449 34.1704089,290.163449 C29.5676,290.163449 25.8193067,286.420595 25.8193067,281.820287 M28.2841244,370.614395 L75.6467556,323.2775 C76.3106222,322.610591 76.3106222,321.535371 75.6467556,320.871865 L43.3828356,288.625476 C44.79568,286.713218 45.6638133,284.375636 45.6638133,281.820287 C45.6638133,275.484656 40.50608,270.329725 34.1704089,270.329725 C27.8313333,270.329725 22.6701956,275.484656 22.6701956,281.820287 C22.6701956,288.155918 27.8313333,293.310849 34.1704089,293.310849 C36.7237422,293.310849 39.066,292.443187 40.9758933,291.031111 L72.03464,322.072981 L26.3742311,367.708579 L0,367.708579 L0,371.111174 L27.0789511,371.111174 C27.5317422,371.111174 27.9641067,370.930837 28.2841244,370.614395" id="Fill-48" fill="#4B5161"></path>
                        <path d="M370.57582,396.936867 C370.57582,401.537175 366.830932,405.280029 362.231527,405.280029 C357.625314,405.280029 353.880425,401.537175 353.880425,396.936867 C353.880425,392.336559 357.625314,388.593705 362.231527,388.593705 C366.830932,388.593705 370.57582,392.336559 370.57582,396.936867 M235.5147,480.507992 C230.911892,480.507992 227.163598,476.761736 227.163598,472.161428 C227.163598,467.564522 230.911892,463.818266 235.5147,463.818266 C240.117509,463.818266 243.858994,467.564522 243.858994,472.161428 C243.858994,476.761736 240.117509,480.507992 235.5147,480.507992 M350.731314,396.936867 C350.731314,399.533046 351.630087,401.901252 353.083785,403.823718 L286.411145,470.46013 L246.834478,470.46013 C246.003794,464.934317 241.271616,460.670866 235.5147,460.670866 C229.175625,460.670866 224.014487,465.825797 224.014487,472.161428 C224.014487,478.500461 229.175625,483.65199 235.5147,483.65199 C241.271616,483.65199 246.003794,479.388539 246.834478,473.862725 L287.115865,473.862725 C287.568656,473.862725 288.00102,473.68579 288.321038,473.365946 L355.507749,406.215742 C357.404025,407.59039 359.715643,408.427429 362.231527,408.427429 C368.567198,408.427429 373.724932,403.272498 373.724932,396.936867 C373.724932,390.601236 368.567198,385.446305 362.231527,385.446305 C355.892452,385.446305 350.731314,390.601236 350.731314,396.936867" id="Fill-50" fill="#4B5161"></path>
                        <g id="Group-54" transform="translate(0.000000, 482.228720)">
                            <mask id="mask-17" fill="white">
                                <use xlink:href="#path-16"></use>
                            </mask>
                            <g id="Clip-53"></g>
                            <path d="M170.428191,30.2701259 C170.428191,34.8704338 166.683302,38.6132878 162.083898,38.6132878 C157.477684,38.6132878 153.732796,34.8704338 153.732796,30.2701259 C153.732796,25.6698181 157.477684,21.926964 162.083898,21.926964 C166.683302,21.926964 170.428191,25.6698181 170.428191,30.2701259 L170.428191,30.2701259 Z M152.868067,23.4683394 C151.451818,25.3771949 150.583684,27.7147774 150.583684,30.2701259 C150.583684,36.605757 155.744822,41.7606878 162.083898,41.7606878 C168.419569,41.7606878 173.577302,36.605757 173.577302,30.2701259 C173.577302,23.9344948 168.419569,18.7795641 162.083898,18.7795641 C159.52716,18.7795641 157.184902,19.6472257 155.275009,21.062705 L134.834724,0.633527203 C134.514707,0.313683313 134.082342,0.136748395 133.629551,0.136748395 L-0.00170222222,0.136748395 L-0.00170222222,3.53934297 L132.924831,3.53934297 L152.868067,23.4683394 Z" id="Fill-52" fill="#4B5161" mask="url(#mask-17)"></path>
                        </g>
                        <path d="M138.249042,538.839011 C138.249042,543.439319 134.504153,547.182173 129.904748,547.182173 C125.298535,547.182173 121.553646,543.439319 121.553646,538.839011 C121.553646,534.238703 125.298535,530.495849 129.904748,530.495849 C134.504153,530.495849 138.249042,534.238703 138.249042,538.839011 L138.249042,538.839011 Z M120.974891,531.69016 C119.391824,533.660262 118.404535,536.123741 118.404535,538.839011 C118.404535,545.174642 123.565673,550.329573 129.904748,550.329573 C136.24042,550.329573 141.398153,545.174642 141.398153,538.839011 C141.398153,532.50338 136.24042,527.348449 129.904748,527.348449 C127.511424,527.348449 125.284917,528.086812 123.439708,529.345772 L105.38594,511.295008 C105.065922,510.978567 104.633557,510.798229 104.180766,510.798229 L0.00136177778,510.798229 L0.00136177778,514.200824 L103.476046,514.200824 L120.974891,531.69016 Z" id="Fill-55" fill="#4B5161"></path>
                        <path d="M63.4176507,603.252508 C63.4176507,607.852816 59.6727618,611.59567 55.0733573,611.59567 C50.467144,611.59567 46.7222551,607.852816 46.7222551,603.252508 C46.7222551,598.6522 50.467144,594.909346 55.0733573,594.909346 C59.6727618,594.909346 63.4176507,598.6522 63.4176507,603.252508 M43.573144,603.252508 C43.573144,609.588139 48.7342818,614.74307 55.0733573,614.74307 C61.4090284,614.74307 66.5667618,609.588139 66.5667618,603.252508 C66.5667618,596.916877 61.4090284,591.761946 55.0733573,591.761946 C48.7342818,591.761946 43.573144,596.916877 43.573144,603.252508" id="Fill-57" fill="#4B5161"></path>
                        <path d="M35.015392,662.645137 C39.6182009,662.645137 43.3596853,666.391393 43.3596853,670.988299 C43.3596853,675.588607 39.6182009,679.331461 35.015392,679.331461 C30.4091787,679.331461 26.6642898,675.588607 26.6642898,670.988299 C26.6642898,666.391393 30.4091787,662.645137 35.015392,662.645137 M35.015392,682.478861 C41.3510631,682.478861 46.5087964,677.32393 46.5087964,670.988299 C46.5087964,664.652668 41.3510631,659.497737 35.015392,659.497737 C29.2584764,659.497737 24.5194898,663.761188 23.6888053,669.287001 L0.000680888889,669.287001 L0.000680888889,672.689596 L23.6888053,672.689596 C24.5194898,678.21541 29.2584764,682.478861 35.015392,682.478861" id="Fill-59" fill="#4B5161"></path>
                    </g>
                </g>
            </g>
        </g>
    </g>
</svg>
